<?xml version="1.0" encoding="UTF-8"?>
<svg width="64" height="64" viewBox="0 0 64 64" xmlns="http://www.w3.org/2000/svg">
  <defs>
    <linearGradient id="bg" x1="0" y1="0" x2="0" y2="1">
      <stop offset="0%" stop-color="#ffffff"/>
      <stop offset="100%" stop-color="#ffe6e6"/>
    </linearGradient>
    <filter id="innerShadow" x="-50%" y="-50%" width="200%" height="200%">
      <feOffset dx="0" dy="1"/>
      <feGaussianBlur stdDeviation="1.5" result="offset-blur"/>
      <feComposite operator="out" in="SourceGraphic" in2="offset-blur" result="inverse"/>
      <feFlood flood-color="#000" flood-opacity="0.12"/>
      <feComposite operator="in" in="flood" in2="inverse"/>
      <feComposite operator="over" in="SourceGraphic"/>
    </filter>
  </defs>
  <!-- Rounded card -->
  <rect x="2" y="2" width="60" height="60" rx="14" fill="url(#bg)" filter="url(#innerShadow)"/>
  <!-- Sun -->
  <circle cx="32" cy="32" r="12" fill="#F4B73B"/>
  <g fill="#F4B73B">
    <rect x="31" y="10" width="2" height="8" rx="1"/>
    <rect x="31" y="46" width="2" height="8" rx="1"/>
    <rect x="46" y="31" width="8" height="2" rx="1"/>
    <rect x="10" y="31" width="8" height="2" rx="1"/>
    <rect x="45.2" y="17.2" width="2" height="8" rx="1" transform="rotate(45 46.2 21.2)"/>
    <rect x="45.2" y="38.8" width="2" height="8" rx="1" transform="rotate(-45 46.2 42.8)"/>
    <rect x="16.8" y="17.2" width="2" height="8" rx="1" transform="rotate(-45 17.8 21.2)"/>
    <rect x="16.8" y="38.8" width="2" height="8" rx="1" transform="rotate(45 17.8 42.8)"/>
  </g>
</svg>
