<?xml version="1.0" encoding="UTF-8"?>
<svg width="64" height="64" viewBox="0 0 64 64" xmlns="http://www.w3.org/2000/svg">
  <defs>
    <linearGradient id="bg" x1="0" y1="0" x2="0" y2="1">
      <stop offset="0%" stop-color="#0b0b0b"/>
      <stop offset="100%" stop-color="#1a1a1a"/>
    </linearGradient>
    <linearGradient id="gloss" x1="0" y1="0" x2="1" y2="1">
      <stop offset="0%" stop-color="#ffffff" stop-opacity="0.25"/>
      <stop offset="100%" stop-color="#ffffff" stop-opacity="0"/>
    </linearGradient>
    <filter id="cardShadow" x="-50%" y="-50%" width="200%" height="200%">
      <feDropShadow dx="0" dy="6" stdDeviation="6" flood-color="#000" flood-opacity="0.4"/>
    </filter>
  </defs>
  <!-- Rounded card -->
  <rect x="2" y="2" width="60" height="60" rx="14" fill="url(#bg)" filter="url(#cardShadow)"/>
  <path d="M40 12c-11 0-20 9-20 20 0 8 5 15 12 18-7-4-12-12-12-21 0-13 10-23 23-23 2 0 4 .2 6 .7-2.8-1.7-6-2.7-9.6-2.7z" fill="#ffffff"/>
  <!-- subtle gloss -->
  <rect x="2" y="2" width="60" height="30" rx="14" fill="url(#gloss)"/>
</svg>
